<?xml version="1.0" encoding="UTF-8"?>
<svg id="Ebene_1" xmlns="http://www.w3.org/2000/svg" version="1.1" viewBox="0 0 476.22046 175.74803">
  <!-- Generator: Adobe Illustrator 29.3.1, SVG Export Plug-In . SVG Version: 2.1.0 Build 151)  -->
  <defs>
    <style>
      .st0 {
        fill: #ee7d11;
      }

      .st1 {
        fill: #00285a;
      }
    </style>
  </defs>
  <path class="st1" d="M136.823,112.77253h-60.16956v-3.697h5.09945c.89247-11.98383,12.36419-16.44545,18.73824-26.13261h-7.39259c-3.56916,1.27424-8.92466,9.17717-8.92466,13.76664h-9.30537l.1282-3.82344-3.06095,2.54884-8.15863-9.43322s-.38213-.50998-.38213-.89211.12785-.63818.12785-.63818l12.8763-17.464,2.2928-6.88403,3.44306-1.2746,3.56917-4.9716-1.27426-8.66861c3.44095-1.2746,6.75618-.1282,8.41255,1.52852.1282-2.54884-.12606-5.35373-.12606-5.35373,6.11798-.63641,8.28504,2.67704,9.305,6.37405,1.65673.12785,3.18702.38213,4.58947.63818.25428-.76426,1.02032-1.40245,1.91278-1.40245,1.14639,0,1.91066.89211,1.91066,1.91243v.51033c2.67881.89211,5.22767,2.16671,7.52258,3.56916.38212-.51033.8921-.76603,1.52851-.76603,1.14816,0,1.91243.89211,1.91243,1.91243,0,.50998-.12606.89247-.38213,1.14816,2.16671,1.78458,3.95129,3.95129,5.60979,6.2462.25428-.12785.63641-.25605.89247-.25605,1.14639,0,2.03851.89247,2.03851,1.91278,0,.76603-.38213,1.40245-1.01854,1.65814,1.2746,2.29314,2.29314,4.84375,3.05917,7.5208.12785-.1282.38213-.1282.51033-.1282,1.14639,0,1.91066.89247,1.91066,1.91278s-.63641,1.78458-1.40068,1.91243c.50856,2.67704.89247,5.35373,1.14639,8.15863,1.14674,0,2.03888.89247,2.03888,1.91278,0,1.14639-.89214,1.91066-1.91068,2.03851,0,2.67704-.1282,5.60979-.38213,8.41468,1.01854.12643,1.78458,1.01854,1.78458,2.03886s-.89247,1.91243-2.04063,1.91243h-.12785c-.50856,2.80489-1.01854,5.60801-1.65672,8.54111h5.35373s0,3.697,0,3.69699h.00002ZM127.64406,109.20339c7.39436-30.46779-1.2746-54.68974-24.85801-57.49464.12785,1.27637.12785,2.29491.12785,3.31523,0,1.5303-.12785,2.80454-.12785,2.80454l-3.69559-.63783c.12608-1.2746.38213-9.9432-2.67846-11.85421,0,0,0,4.5877-1.01854,9.17717l-3.44308-.63641c0-3.18702-1.40245-4.46127-3.31346-5.35373l.89247,6.2462-2.16848,3.18702,1.02032,2.93097-6.75618,2.29491-1.91278,5.48158-11.85563,16.31725,4.46304,5.35409,4.9716-4.20557,1.14675.76426v6.2462h2.67669c1.14816-4.46162,4.84375-9.68928,8.28684-12.23812l-1.9128-2.29491,2.80489-2.42241,2.67704,3.31487s9.56107,0,9.56107-.12785c1.40245-3.05917,2.29456-6.75653,2.29456-11.08995h3.69736c0,14.53267-7.26651,20.26889-16.31724,29.19355-3.31524,3.3131-6.24798,6.88226-6.63012,11.72778h42.06772l.00002.00002-.00002-.00002ZM74.48639,81.03015c.1282,1.65673-.12785,4.20734-1.01996,5.48194l-2.67704-1.02032c.89211-1.2746,1.40245-3.05917,1.40245-4.58947,0,0,2.29456.12785,2.29455.12785ZM89.14548,66.87961l-5.73586,3.05917-.38213-4.7159,5.99192-.63783.12608,2.29456s0,0,0,0Z"/>
  <path class="st0" d="M136.823,131.63899h-60.16956v-7.39436h60.16956v7.39436Z"/>
  <path class="st1" d="M178.13673,113.79286c-4.84338,0-8.66861-1.14816-12.36597-2.80489-.76427-3.31487-1.02032-7.77649-1.27425-12.36596l2.93274-.50998c1.65675,6.24584,3.95129,12.36596,11.59993,12.36596,5.35373,0,8.54076-3.31523,8.54076-8.28683,0-13.13023-21.79919-10.19749-21.79919-25.36834,0-6.88403,5.60979-13.13023,15.55299-13.13023,3.31523,0,6.88438.89247,10.45354,2.16671.2543,2.67704.50998,5.73763.63641,11.09172l-2.67703.12785c-1.27426-4.46339-3.31313-9.94497-9.81537-9.94497-4.8434,0-7.26616,3.31487-7.26616,7.26616,0,12.11204,22.18134,9.56143,22.18134,25.36834,0,7.52257-6.75655,14.02446-16.69975,14.02446h.00002ZM214.4686,113.28288c-2.04063-.1282-3.69701-.51033-4.71732-.89247v11.98206c0,4.3352.50998,4.71732,6.37405,5.22765v2.42099h-17.97397v-2.42099c4.58945-.51033,4.97157-.89247,4.97157-5.22765v-34.03695c0-4.46162-.12785-4.58947-4.46159-4.97196v-2.16671c3.82343-.76426,7.39256-1.91243,11.08994-3.18702v4.84375l6.88403-3.56916c.89247-.50998,1.78458-.63641,2.67703-.63641,7.90436,0,12.36597,6.88261,12.36597,13.51236,0,10.70782-7.64864,17.97398-17.20972,19.12251ZM216.12532,85.36357c-2.03886,0-4.7159,1.40245-6.37405,2.42276v18.86645c1.40245,1.5303,3.69701,2.67669,6.50191,2.67669,3.69736,0,8.54076-2.80312,8.54076-12.36419,0-8.03219-3.82484-11.6017-8.66861-11.60171ZM255.89848,88.55094c-.76462-1.02032-1.78458-1.2746-3.05917-1.2746-1.65672,0-3.69736,1.91243-5.09981,5.86407v11.85563c0,4.33342.51035,4.71732,5.99191,5.09945v2.54919h-17.33757v-2.54919c4.33554-.38213,4.84552-.76603,4.84552-5.09945v-14.40482c0-4.33519-.38213-4.33519-4.33519-5.09945v-2.16671c3.82521-.76603,7.52222-1.53065,10.83531-2.80489v7.64829h.1282c2.29459-4.20699,5.48158-7.52044,8.41292-7.52044,2.5506,0,4.33517,1.91101,4.33517,3.95129,0,2.93133-3.05917,5.48194-4.71732,3.95164h.00002ZM280.24792,112.64469h-16.31726v-2.54919c4.33377-.38213,4.97159-.76603,4.97159-5.35373v-13.76841c0-4.9716-.38214-4.9716-4.58945-5.48158v-2.16671c3.95163-.76603,7.90292-1.6585,11.08997-2.80489v24.22159c0,4.5877.38211,4.9716,4.84515,5.35373v2.54919h-.00003.00003ZM271.83359,73.76398c-2.42099,0-4.33377-1.91278-4.33377-4.33554,0-2.54884,1.91278-4.46127,4.33377-4.46127,2.5506,0,4.46127,1.91243,4.46127,4.46127,0,2.42276-1.91068,4.33554-4.46127,4.33554ZM319.25684,112.64469h-15.043v-2.54919c3.56949-.38213,4.07947-.76603,4.07947-4.84517v-12.4924c0-4.58947-2.04062-7.39436-5.86407-7.39436-2.42242,0-5.22729,1.78493-7.14008,3.56951v16.31725c0,4.07914.38391,4.46304,3.95306,4.84517v2.54919h-15.55298v-2.54919c4.33377-.38213,4.97159-.76603,4.97159-4.84517v-14.65911c0-4.33519-.25394-4.58947-4.07916-5.09945v-2.16671c3.8252-.76603,7.39435-1.53065,10.70746-2.80489v5.09945c1.65848-1.40245,6.50223-4.9716,10.19925-4.9716,5.73587,0,9.30502,3.95129,9.30502,9.81535v14.78696c0,4.07914.63818,4.46304,4.46338,4.84517v2.54919h.00003l.00003.00002ZM355.58691,82.30474c-.50854,1.14639-1.91101,3.31487-3.05917,3.95129l-3.69699-.38213c1.02032,1.40245,1.78458,4.20734,1.78458,6.37405,0,7.77649-7.01047,11.98383-13.38449,11.98383-.38214,0-1.40244-.12785-2.29492-.12785-1.53033.50998-2.80457,2.29456-2.80457,3.44095,0,1.14852,1.14816,2.55061,4.207,2.55061h7.64862c4.46161,0,10.45355,2.16706,10.45355,9.30537,0,8.15863-8.54111,15.04265-18.48431,15.04265-8.66861,0-13.25809-5.35373-13.25809-9.68892,0-2.80312,1.40244-4.9716,7.39435-9.56107-2.16849-.76426-5.99191-2.93097-5.73764-7.01046,2.93274-1.2746,5.60944-3.56916,6.7562-4.9716-3.44131-1.14816-6.62836-5.22765-6.62836-9.81535,0-8.28647,7.39435-12.7481,13.51236-12.7481,2.67703,0,5.22766.63641,7.39435,1.78458,3.31488-.12785,6.62833-.50998,9.68893-.89211l.50854.76426h.00006v.00003ZM345.51727,116.4699c-1.78458-.63818-4.20734-.76639-8.15863-.76639-5.48157,0-7.90433,4.07949-7.90433,7.14044,0,4.33342,3.8252,7.64829,9.56107,7.64829,6.37405,0,9.94321-4.20734,9.94321-8.41468,0-2.67669-1.5303-4.8434-3.44131-5.60767ZM337.35867,83.70719c-2.6767,0-5.73761,2.80489-5.73761,8.15863s2.8049,9.17894,6.63007,9.17894c2.80313,0,5.48157-2.42276,5.48157-8.28683,0-4.9716-2.42276-9.05074-6.37405-9.05074h.00003ZM382.35773,94.92499c-1.14676.12785-9.94321.76426-17.97397,1.01996.25427,8.41291,5.22586,11.98206,10.19922,11.98206,2.80313,0,4.84341-.76426,7.39258-3.3131l1.65814,2.29456c-4.20734,5.22588-9.17896,6.50048-11.47351,6.50048-9.05109,0-14.27872-6.88261-14.27872-15.04124,0-9.9432,7.52255-17.7197,15.043-17.7197,6.24619,0,11.2178,5.35373,11.2178,11.34565,0,1.91101-.38214,2.67704-1.78458,2.93133h.00003ZM371.52203,83.83504c-2.93094,0-5.99191,3.18702-6.7562,8.66719l10.96353-.25428c1.40244,0,1.65674-.38213,1.65674-1.65673,0-3.44272-2.42099-6.75618-5.86407-6.75618ZM408.23602,88.55094c-.89212-.89247-2.03885-1.2746-3.05917-1.2746-1.65637,0-3.82486,1.91243-5.22552,5.86407v11.85563c0,4.33342.50818,4.71732,5.99011,5.09945v2.54919h-17.46399v-2.54919c4.46164-.38213,4.84375-.76603,4.84375-5.09945v-14.40482c0-4.33519-.25427-4.33519-4.33344-5.09945v-2.16671c4.07913-.76603,7.64828-1.53065,10.96353-2.80489v7.64829h.12607c2.16672-4.20699,5.35373-7.52044,8.41467-7.52044,2.42099,0,4.33344,1.91101,4.33344,3.95129,0,2.93133-3.18701,5.48194-4.58948,3.95164h.00003Z"/>
</svg>